<?xml version="1.0" standalone="no"?>
<!DOCTYPE svg PUBLIC "-//W3C//DTD SVG 20010904//EN"
 "http://www.w3.org/TR/2001/REC-SVG-20010904/DTD/svg10.dtd">
<svg version="1.0" xmlns="http://www.w3.org/2000/svg"
 width="1024.000000pt" height="1024.000000pt" viewBox="0 0 1024.000000 1024.000000"
 preserveAspectRatio="xMidYMid meet">

<g transform="translate(0.000000,1024.000000) scale(0.100000,-0.100000)"
fill="#000000" stroke="none">
<path d="M9780 9509 c-1126 -80 -2215 -595 -3075 -1454 -833 -831 -1357 -1899
-1480 -3015 -9 -80 -18 -219 -20 -310 l-5 -165 30 110 c104 375 219 620 418
887 255 343 495 552 882 767 446 247 751 331 1440 396 476 45 675 89 919 206
215 102 428 269 549 430 139 185 232 428 281 740 24 152 44 319 38 325 -2 2
-42 -14 -88 -35 -115 -54 -191 -73 -498 -126 -145 -25 -316 -57 -380 -71 -242
-54 -570 -178 -765 -289 -43 -25 -80 -44 -82 -42 -5 4 165 132 236 179 232
151 438 237 855 358 409 119 553 178 702 289 55 41 63 51 73 96 39 169 103
351 201 573 34 75 63 143 66 150 6 14 -106 15 -297 1z"/>
<path d="M7415 5113 c-97 -6 -271 -35 -390 -63 -502 -120 -962 -400 -1297
-790 -355 -412 -561 -914 -598 -1457 -6 -87 -10 -689 -10 -1472 l0 -1324 213
6 c506 14 1055 121 1549 303 1664 613 2897 2043 3252 3774 53 261 90 569 101
858 l7 172 -1388 -2 c-764 -1 -1411 -3 -1439 -5z"/>
</g>
</svg>
