<svg id="svg" version="1.1" xmlns="http://www.w3.org/2000/svg" xmlns:xlink="http://www.w3.org/1999/xlink" width="400" height="400" viewBox="0, 0, 400,400"><g id="svgg"><path id="path0" d="M53.769 200.058 L 0.000 200.126 0.002 201.558 C 0.154 293.510,65.947 375.090,156.120 395.136 C 169.571 398.127,189.885 400.438,198.505 399.959 L 200.000 399.875 200.000 344.299 C 200.000 282.640,200.103 286.801,198.359 278.006 C 190.177 236.747,155.713 204.896,114.517 200.523 C 109.308 199.970,111.391 199.986,53.769 200.058 " stroke="none" fill="#fcec9c" fill-rule="evenodd"></path><path id="path1" d="M383.801 28.335 C 288.594 33.946,206.827 118.866,203.119 215.981 C 202.822 223.762,202.839 223.810,204.090 218.816 C 212.541 185.077,234.056 160.862,268.536 146.281 C 279.484 141.651,291.628 139.143,311.900 137.326 C 331.048 135.609,337.605 134.095,348.037 128.982 C 366.467 119.951,376.104 106.352,379.661 84.361 C 380.240 80.780,381.559 70.482,381.455 70.354 C 381.432 70.325,380.352 70.848,379.055 71.515 C 374.126 74.050,370.651 74.957,357.134 77.235 C 336.823 80.658,325.344 84.353,312.586 91.575 C 310.470 92.772,310.622 92.542,313.333 90.442 C 324.430 81.846,333.719 77.538,353.520 71.803 C 369.237 67.251,375.893 64.441,381.246 60.098 L 382.963 58.705 383.387 56.649 C 384.675 50.392,388.442 40.015,392.543 31.428 C 393.355 29.730,394.019 28.300,394.019 28.251 C 394.019 28.148,385.832 28.215,383.801 28.335 " stroke="none" fill="#040404" fill-rule="evenodd"></path><path id="path2" d="M190.280 0.163 C 152.073 2.412,118.717 13.511,88.081 34.169 C 33.709 70.833,0.118 133.483,0.003 198.447 L 0.000 199.885 56.636 199.808 C 119.362 199.724,114.114 199.859,122.735 198.103 C 161.321 190.239,191.719 159.184,198.628 120.567 C 200.063 112.548,199.967 116.877,200.055 56.012 L 200.136 0.000 195.831 0.045 C 193.464 0.070,190.966 0.123,190.280 0.163 " stroke="none" fill="#848cd4" fill-rule="evenodd"></path><path id="path3" d="M290.467 200.039 C 243.469 203.786,207.704 237.381,200.696 284.361 C 200.304 286.991,200.263 291.874,200.192 343.652 L 200.114 400.077 205.665 399.904 C 275.612 397.723,337.766 360.772,373.187 300.312 C 389.888 271.803,400.000 235.503,400.000 204.054 L 400.000 199.875 345.732 199.917 C 315.885 199.940,291.016 199.995,290.467 200.039 " stroke="none" fill="#dc2424" fill-rule="evenodd"></path><path id="path4" d="M26.874 200.062 C 41.722 200.098,65.947 200.098,80.705 200.062 C 95.464 200.027,83.315 199.998,53.707 199.998 C 24.100 199.998,12.025 200.027,26.874 200.062 " stroke="none" fill="#ecdca4" fill-rule="evenodd"></path></g></svg>