<?xml version="1.0" standalone="no"?>
<!DOCTYPE svg PUBLIC "-//W3C//DTD SVG 20010904//EN"
 "http://www.w3.org/TR/2001/REC-SVG-20010904/DTD/svg10.dtd">
<svg version="1.0" xmlns="http://www.w3.org/2000/svg"
 width="640.000000pt" height="133.000000pt" viewBox="0 0 640.000000 133.000000"
 preserveAspectRatio="xMidYMid meet">

<g transform="translate(0.000000,133.000000) scale(0.100000,-0.100000)"
fill="#000000" stroke="none">
<path d="M1213 1229 c-273 -46 -500 -285 -538 -569 l-6 -45 26 52 c60 121 159
183 329 206 119 17 171 42 206 99 18 29 37 105 28 113 -4 5 -155 -29 -182 -40
-13 -6 -17 -5 -13 3 4 6 38 20 75 32 111 37 126 46 139 87 6 21 15 46 18 56 8
19 1 20 -82 6z"/>
<path d="M5310 995 l0 -55 75 0 75 0 0 55 0 55 -75 0 -75 0 0 -55z"/>
<path d="M5610 970 l0 -80 -35 0 -35 0 0 -55 0 -55 35 0 35 0 0 -185 0 -185
70 0 70 0 0 185 0 185 35 0 35 0 0 55 0 55 -35 0 -35 0 0 80 0 80 -70 0 -70 0
0 -80z"/>
<path d="M5900 730 l0 -320 69 0 69 0 4 161 c3 155 4 161 27 180 35 28 85 25
110 -7 19 -24 21 -40 21 -180 l0 -154 70 0 70 0 0 185 c0 166 -2 190 -20 225
-23 45 -50 67 -104 81 -51 14 -110 3 -146 -28 l-30 -25 0 101 0 101 -70 0 -70
0 0 -320z"/>
<path d="M1882 891 c-129 -45 -197 -179 -159 -312 41 -138 184 -210 331 -167
49 15 137 98 154 146 l11 32 -71 0 c-65 0 -75 -3 -101 -27 -23 -23 -37 -28
-78 -28 -44 0 -54 4 -80 33 -46 52 -39 141 15 184 35 29 99 23 140 -12 33 -29
39 -31 105 -28 l70 3 -18 40 c-53 118 -197 180 -319 136z"/>
<path d="M2493 900 c-77 -16 -139 -64 -179 -140 -27 -51 -26 -172 3 -225 46
-86 129 -135 228 -134 112 0 186 44 231 135 32 65 37 155 12 214 -46 109 -173
174 -295 150z m128 -158 c60 -54 48 -162 -23 -198 -87 -45 -190 46 -158 141
27 82 120 112 181 57z"/>
<path d="M3127 895 c-22 -7 -50 -23 -63 -36 l-24 -22 0 26 c0 27 -1 27 -70 27
l-70 0 2 -317 3 -318 70 0 70 0 3 97 3 97 36 -25 c29 -19 48 -24 100 -24 77 0
126 22 175 80 115 133 55 367 -105 415 -61 18 -81 18 -130 0z m93 -140 c105
-54 59 -225 -60 -225 -89 0 -147 99 -105 180 29 55 105 76 165 45z"/>
<path d="M4121 900 c-43 -10 -80 -38 -109 -81 -19 -27 -23 -43 -19 -79 6 -56
41 -89 123 -119 84 -30 108 -44 113 -66 4 -21 -23 -45 -51 -45 -10 0 -27 9
-38 20 -16 16 -33 20 -85 20 -57 0 -65 -2 -65 -19 0 -24 38 -79 73 -105 20
-15 47 -21 96 -24 85 -5 128 8 171 53 29 30 34 43 38 95 4 57 3 61 -29 93 -23
22 -58 42 -104 57 -84 27 -115 51 -95 74 16 20 54 21 70 1 9 -11 32 -15 82
-15 67 0 69 1 63 23 -14 45 -41 81 -75 98 -43 23 -113 31 -159 19z"/>
<path d="M4676 900 c-16 -5 -39 -19 -52 -31 l-24 -22 0 21 c0 21 -5 22 -70 22
l-70 0 0 -240 0 -241 73 3 72 3 5 163 c4 147 7 165 24 178 29 21 80 18 102 -7
17 -18 19 -40 22 -180 l3 -159 69 0 69 0 3 159 c3 183 11 201 78 201 60 0 64
-13 70 -194 l5 -161 70 0 70 0 0 180 c0 160 -2 184 -20 220 -50 100 -191 123
-276 44 l-32 -30 -29 30 c-28 29 -83 52 -118 50 -8 0 -28 -5 -44 -9z"/>
<path d="M3460 882 c0 -5 39 -107 86 -227 l85 -219 -35 -86 c-20 -47 -36 -89
-36 -93 0 -4 33 -7 73 -7 l74 0 116 313 c65 171 117 315 117 320 0 4 -33 7
-73 7 l-73 0 -44 -135 c-24 -74 -47 -132 -51 -127 -3 4 -25 64 -49 135 l-42
127 -74 0 c-41 0 -74 -4 -74 -8z"/>
<path d="M5312 653 l3 -238 73 -3 72 -3 0 241 0 240 -75 0 -75 0 2 -237z"/>
<path d="M877 646 c-87 -32 -146 -88 -189 -182 -22 -46 -23 -62 -23 -254 l0
-205 45 3 c78 5 173 32 250 70 101 49 231 177 283 279 41 78 77 203 77 265 l0
38 -202 0 c-144 -1 -214 -5 -241 -14z"/>
</g>
</svg>
