<?xml version="1.0" encoding="UTF-8" standalone="no"?>
<!-- Created with Inkscape (http://www.inkscape.org/) -->

<svg
   xmlns:dc="http://purl.org/dc/elements/1.1/"
   xmlns:cc="http://creativecommons.org/ns#"
   xmlns:rdf="http://www.w3.org/1999/02/22-rdf-syntax-ns#"
   xmlns:svg="http://www.w3.org/2000/svg"
   xmlns="http://www.w3.org/2000/svg"
   xmlns:sodipodi="http://sodipodi.sourceforge.net/DTD/sodipodi-0.dtd"
   xmlns:inkscape="http://www.inkscape.org/namespaces/inkscape"
   width="252.00002"
   height="56.172508"
   viewBox="0 0 66.675 14.862309"
   version="1.1"
   id="svg8"
   inkscape:version="0.92.0 r15299"
   sodipodi:docname="hootsuite.svg">
  <defs
     id="defs2" />
  <sodipodi:namedview
     id="base"
     pagecolor="#ffffff"
     bordercolor="#666666"
     borderopacity="1.0"
     inkscape:pageopacity="0.0"
     inkscape:pageshadow="2"
     inkscape:zoom="1.9221439"
     inkscape:cx="233.33322"
     inkscape:cy="50.560998"
     inkscape:document-units="mm"
     inkscape:current-layer="layer1"
     showgrid="false"
     fit-margin-top="0"
     fit-margin-left="0"
     fit-margin-right="0"
     fit-margin-bottom="0"
     units="px"
     inkscape:window-width="1280"
     inkscape:window-height="744"
     inkscape:window-x="-4"
     inkscape:window-y="-4"
     inkscape:window-maximized="1" />
  <metadata
     id="metadata5">
    <rdf:RDF>
      <cc:Work
         rdf:about="">
        <dc:format>image/svg+xml</dc:format>
        <dc:type
           rdf:resource="http://purl.org/dc/dcmitype/StillImage" />
        <dc:title></dc:title>
      </cc:Work>
    </rdf:RDF>
  </metadata>
  <g
     inkscape:label="Layer 1"
     inkscape:groupmode="layer"
     id="layer1"
     transform="translate(-273.90678,-284.17601)">
    <g
       transform="matrix(0.1889882,0,0,-0.1889882,274.17133,298.77374)"
       inkscape:label="ink_ext_XXXXXX"
       id="g18"
       style="stroke-width:1.8666656">
      <g
         transform="scale(0.1)"
         id="g20"
         style="stroke-width:1.8666656">
        <path
           inkscape:connector-curvature="0"
           id="path22"
           style="fill:#100f0d;fill-opacity:1;fill-rule:nonzero;stroke:none;stroke-width:1.8666656"
           d="M 821.91,630.031 V 462.863 h 161.356 v 167.168 h 97.724 V 196.66 H 983.266 V 377.375 H 821.91 V 196.66 h -97.726 v 433.371 h 97.726" />
        <path
           inkscape:connector-curvature="0"
           id="path24"
           style="fill:#100f0d;fill-opacity:1;fill-rule:nonzero;stroke:none;stroke-width:1.8666656"
           d="m 1279.16,189.633 c -91.94,0 -162.66,60.418 -162.66,161.976 0,101.586 66.86,166.524 168.42,166.524 95.8,0 160.1,-66.199 160.1,-161.379 0,-114.399 -81.63,-167.121 -165.24,-167.121 z m 1.91,70.035 c 38.6,0 62.39,37.957 62.39,94.535 0,46.317 -18.05,93.871 -62.39,93.871 -46.3,0 -64.28,-47.554 -64.28,-94.535 0,-53.34 22.51,-93.871 63.63,-93.871 h 0.65" />
        <path
           inkscape:connector-curvature="0"
           id="path26"
           style="fill:#100f0d;fill-opacity:1;fill-rule:nonzero;stroke:none;stroke-width:1.8666656"
           d="m 1640.44,189.633 c -91.94,0 -162.63,60.418 -162.63,161.976 0,101.586 66.85,166.524 168.44,166.524 95.8,0 160.09,-66.199 160.09,-161.379 0,-114.399 -81.67,-167.121 -165.26,-167.121 z m 1.93,70.035 c 38.6,0 62.39,37.957 62.39,94.535 0,46.317 -18.05,93.871 -62.39,93.871 -46.29,0 -64.27,-47.554 -64.27,-94.535 0,-53.34 22.48,-93.871 63.65,-93.871 h 0.62" />
        <path
           inkscape:connector-curvature="0"
           id="path28"
           style="fill:#100f0d;fill-opacity:1;fill-rule:nonzero;stroke:none;stroke-width:1.8666656"
           d="m 1842.05,439.074 v -129.23 c 0,-44.364 9.02,-74.582 27.03,-93.184 16.05,-16.117 42.41,-27.027 73.91,-27.027 27,0 50.77,3.859 63.01,8.359 l -0.67,73.942 c -8.97,-1.954 -15.4,-2.598 -28.91,-2.598 -28.91,0 -38.57,17.383 -38.57,55.316 v 114.422 h 70.1 v 72.012 h -70.1 v 60.805 l -0.37,-0.207 v 34.671 c -52.65,0 -95.36,-42.574 -95.36,-95.269 h -0.07 v -72.012" />
        <path
           inkscape:connector-curvature="0"
           id="path30"
           style="fill:#100f0d;fill-opacity:1;fill-rule:nonzero;stroke:none;stroke-width:1.8666656"
           d="m 2843,439.074 v -129.23 c 0,-44.364 9.03,-74.582 27,-93.184 16.08,-16.117 42.42,-27.027 73.92,-27.027 27,0 50.79,3.859 63.03,8.359 l -0.66,73.942 c -8.98,-1.954 -15.43,-2.598 -28.94,-2.598 -28.91,0 -38.55,17.383 -38.55,55.316 v 114.422 h 70.08 v 72.012 h -70.08 v 60.805 l -0.37,-0.207 v 34.671 c -52.65,0 -95.36,-42.574 -95.36,-95.269 H 2843 v -72.012" />
        <path
           inkscape:connector-curvature="0"
           id="path32"
           style="fill:#100f0d;fill-opacity:1;fill-rule:nonzero;stroke:none;stroke-width:1.8666656"
           d="m 2059.36,281.574 c 18.01,-10.929 55.27,-23.144 84.25,-23.144 29.56,0 41.77,9.644 41.77,25.695 0,16.738 -9.64,24.453 -45.65,36.672 -65.58,21.168 -90.68,57.219 -90.01,93.848 0,59.148 50.13,103.511 127.95,103.511 36.64,0 68.77,-9 88.06,-18.644 l -16.7,-66.867 c -14.16,7.074 -41.81,17.359 -68.17,17.359 -23.77,0 -37.25,-9.621 -37.25,-25.051 0,-15.43 12.2,-23.172 50.77,-36.695 59.77,-19.887 84.23,-50.723 84.87,-96.395 0,-59.152 -45.65,-102.23 -135.64,-102.23 -41.17,0 -77.82,9.644 -101.61,22.504 l 17.36,69.437" />
        <path
           inkscape:connector-curvature="0"
           id="path34"
           style="fill:#100f0d;fill-opacity:1;fill-rule:nonzero;stroke:none;stroke-width:1.8666656"
           d="m 2612.37,297.625 c 0,-41.148 1.33,-74.559 2.59,-100.941 h -84.87 l -4.5,44.363 h -1.93 c -12.21,-19.289 -41.76,-51.414 -98.34,-51.414 -64.32,0 -110.61,39.84 -110.61,136.949 v 184.504 h 97.72 V 341.965 c 0,-45.625 14.81,-73.227 49.51,-73.227 26.98,0 43.05,18.625 48.84,34.078 2.6,5.762 3.86,12.813 3.86,21.196 v 187.074 h 97.73 V 297.625" />
        <path
           inkscape:connector-curvature="0"
           id="path36"
           style="fill:#100f0d;fill-opacity:1;fill-rule:nonzero;stroke:none;stroke-width:1.8666656"
           d="m 2679.23,196.66 h 97.75 v 314.402 h -97.75 z" />
        <path
           inkscape:connector-curvature="0"
           id="path38"
           style="fill:#100f0d;fill-opacity:1;fill-rule:nonzero;stroke:none;stroke-width:1.8666656"
           d="m 2727.48,552.234 c -32.79,0 -54.01,23.145 -54.01,52.079 0,29.597 21.86,52.078 55.27,52.078 33.43,0 54.03,-22.481 54.65,-52.078 0,-28.934 -21.22,-52.079 -55.29,-52.079 h -0.62" />
        <path
           inkscape:connector-curvature="0"
           id="path40"
           style="fill:#100f0d;fill-opacity:1;fill-rule:nonzero;stroke:none;stroke-width:1.8666656"
           d="m 3132.01,323.367 c 3.21,-41.172 43.05,-60.437 88.72,-60.437 33.44,0 60.44,4.476 86.8,13.48 l 12.88,-66.226 c -32.19,-13.5 -71.41,-19.907 -113.85,-19.907 -106.7,0 -167.78,61.7 -167.78,160.735 0,79.726 50.12,167.812 158.83,167.812 101.56,0 140.12,-79.129 140.12,-156.902 0,-16.672 -1.93,-31.504 -3.2,-39.199 z m 115.08,66.867 c 0,23.121 -10.28,63.653 -54.67,63.653 -41.77,0 -58.49,-37.934 -61.06,-63.653 h 115.73" />
        <path
           inkscape:connector-curvature="0"
           id="path42"
           style="fill:#100f0d;fill-opacity:1;fill-rule:nonzero;stroke:none;stroke-width:1.8666656"
           d="m 3488.86,438.949 -2.91,43.813 c -0.37,5.66 0,12.593 -0.21,19.711 h -0.53 c -1.83,-6.75 -4.02,-14.418 -6.2,-20.805 l -15.15,-41.801 h -8.41 l -14.79,42.895 c -1.81,5.843 -3.62,12.961 -5.28,19.711 h -0.55 c -0.18,-6.934 0,-13.145 -0.36,-19.711 l -2.74,-43.813 h -10.58 l 5.65,72.653 h 14.42 l 14.23,-39.414 c 1.84,-5.489 3.31,-11.504 5.1,-18.266 h 0.39 c 1.63,6.762 3.29,13.144 5.1,18.426 l 14.24,39.254 h 14.23 l 5.49,-72.653 z m -70.26,72.653 v -9.313 h -22.27 v -63.34 h -10.96 v 63.34 h -22.09 v 9.313 h 55.32" />
        <path
           inkscape:connector-curvature="0"
           id="path44"
           style="fill:#100f0d;fill-opacity:1;fill-rule:nonzero;stroke:none;stroke-width:1.8666656"
           d="m 379.195,724.313 c -37.058,21.515 -80.031,33.949 -125.918,34.101 -46.441,0.113 -89.945,-12.344 -127.394,-34.101 -37.0861,21.32 -80.0471,33.535 -125.87909375,33.41 V 505.148 C -0.777344,226.043 226.203,0.792969 505.055,0 v 757.723 c -45.813,0.125 -88.774,-12.09 -125.86,-33.41" />
        <path
           inkscape:connector-curvature="0"
           id="path46"
           style="fill:#ffffff;fill-opacity:1;fill-rule:nonzero;stroke:none;stroke-width:1.8666656"
           d="m 360.781,485.883 c -39.879,0.101 -72.121,32.527 -72.004,72.414 0.024,7.414 1.172,14.601 3.282,21.332 5.601,-12.574 18.164,-21.391 32.836,-21.438 19.925,-0.058 36.14,16.051 36.183,35.985 0.047,14.672 -8.703,27.265 -21.262,32.949 6.75,2.078 13.938,3.18 21.379,3.156 39.864,-0.113 72.125,-32.527 72.008,-72.41 -0.137,-39.887 -32.558,-72.113 -72.422,-71.988 z m -216.621,0.609 c -39.863,0.113 -72.1248,32.528 -71.9998,72.399 0.1015,39.886 32.5738,72.136 72.4378,72.011 7.425,-0.023 14.578,-1.16 21.328,-3.273 -12.582,-5.602 -21.375,-18.141 -21.422,-32.824 -0.059,-19.93 16.039,-36.153 35.969,-36.211 14.664,-0.035 27.269,8.703 32.965,21.261 2.054,-6.75 3.167,-13.925 3.144,-21.367 -0.125,-39.871 -32.535,-72.125 -72.422,-71.996 z m 217.125,179.899 c -56.527,0.16 -103.051,-43.102 -108.09,-98.371 l -0.48,0.668 -0.473,-0.668 c -4.742,55.304 -51,98.832 -107.554,98.992 C 84.8711,667.195 36.2578,618.824 36.0977,559.02 35.9141,499.18 84.25,450.555 144.066,450.395 c 21.278,-0.071 41.082,6.097 57.844,16.66 l 50.356,-50.645 50.656,50.348 c 16.715,-10.645 36.457,-16.914 57.746,-16.985 59.84,-0.183 108.449,48.188 108.633,107.993 0.16,59.82 -48.176,108.464 -108.016,108.625" />
      </g>
    </g>
  </g>
</svg>
