<?xml version="1.0" encoding="UTF-8" standalone="no"?>
<!DOCTYPE svg PUBLIC "-//W3C//DTD SVG 1.1//EN" "http://www.w3.org/Graphics/SVG/1.1/DTD/svg11.dtd">
<svg width="100%" height="100%" viewBox="0 0 80 80" version="1.1" xmlns="http://www.w3.org/2000/svg" xmlns:xlink="http://www.w3.org/1999/xlink" xml:space="preserve" xmlns:serif="http://www.serif.com/" style="fill-rule:evenodd;clip-rule:evenodd;stroke-linejoin:round;stroke-miterlimit:2;">
    <g id="path44" transform="matrix(0.0278949,0,0,-0.0278949,13.376,79.9594)">
        <path d="M1433.18,2737.56C1293.12,2818.88 1130.7,2865.87 957.267,2866.45C781.742,2866.87 617.318,2819.79 475.778,2737.56C335.61,2818.14 173.238,2864.31 0.015,2863.84L0.015,1909.22C-2.938,854.336 854.941,2.997 1908.87,0L1908.87,2863.84C1735.72,2864.31 1573.35,2818.14 1433.18,2737.56" style="fill:rgb(16,15,13);fill-rule:nonzero;"/>
    </g>
    <g id="path46" transform="matrix(0.0278949,0,0,-0.0278949,13.376,79.9594)">
        <path d="M1363.58,1836.41C1212.86,1836.79 1091,1959.35 1091.44,2110.1C1091.53,2138.12 1095.87,2165.28 1103.85,2190.72C1125.01,2143.2 1172.5,2109.88 1227.95,2109.7C1303.26,2109.48 1364.54,2170.36 1364.7,2245.7C1364.88,2301.16 1331.81,2348.75 1284.34,2370.24C1309.86,2378.09 1337.02,2382.26 1365.15,2382.16C1515.81,2381.74 1637.75,2259.23 1637.3,2108.49C1636.79,1957.74 1514.25,1835.94 1363.58,1836.41ZM544.857,1838.71C394.193,1839.14 272.259,1961.65 272.731,2112.34C273.115,2263.09 395.845,2384.98 546.512,2384.51C574.575,2384.43 601.61,2380.13 627.122,2372.14C579.568,2350.97 546.335,2303.58 546.157,2248.08C545.934,2172.76 606.777,2111.44 682.103,2111.22C737.526,2111.09 785.167,2144.12 806.695,2191.58C814.458,2166.07 818.665,2138.95 818.578,2110.82C818.105,1960.13 695.611,1838.22 544.857,1838.71ZM1365.49,2518.64C1151.84,2519.25 976.003,2355.74 956.958,2146.85L955.143,2149.37L953.356,2146.85C935.433,2355.87 760.6,2520.39 546.852,2520.99C320.773,2521.68 137.037,2338.86 136.432,2112.83C135.738,1886.66 318.425,1702.88 544.501,1702.28C624.922,1702.01 699.772,1725.32 763.124,1765.25L953.446,1573.83L1144.9,1764.13C1208.08,1723.89 1282.69,1700.2 1363.15,1699.93C1589.32,1699.24 1773.04,1882.06 1773.74,2108.09C1774.34,2334.18 1591.65,2518.03 1365.49,2518.64" style="fill:white;fill-rule:nonzero;"/>
    </g>
</svg>
