<?xml version="1.0" encoding="UTF-8" standalone="no"?>
<!DOCTYPE svg PUBLIC "-//W3C//DTD SVG 1.1//EN" "http://www.w3.org/Graphics/SVG/1.1/DTD/svg11.dtd">
<svg width="100%" height="100%" viewBox="0 0 80 80" version="1.1" xmlns="http://www.w3.org/2000/svg" xmlns:xlink="http://www.w3.org/1999/xlink" xml:space="preserve" xmlns:serif="http://www.serif.com/" style="fill-rule:evenodd;clip-rule:evenodd;stroke-linejoin:round;stroke-miterlimit:2;">
    <g transform="matrix(0.40404,0,0,0.40404,-45.5539,-20.5851)">
        <g id="Page-1">
            <g id="logos">
                <path id="logo_standard" d="M112.746,82.343L142.806,82.343L142.806,163.017C142.806,175.784 148.646,183.389 153.264,186.649C148.375,190.995 133.435,194.798 122.298,185.562C115.732,180.118 112.746,171.166 112.746,162.745L112.746,82.343ZM300.609,149.357L300.609,140.879L309.777,140.879L309.777,111.136L299.709,111.136C295.844,93.279 279.946,79.898 260.933,79.898C239.03,79.898 221.275,97.654 221.275,119.556L221.275,189.015C227.515,189.892 234.949,188.906 241.274,183.661C247.839,178.216 250.825,169.265 250.825,160.844L250.825,158.285L265.838,158.285L265.838,128.542L250.825,128.542L250.825,119.556L250.861,119.556C250.861,113.994 255.37,109.485 260.933,109.485C266.495,109.485 271.022,113.994 271.022,119.556L271.022,149.357C271.022,171.259 288.796,189.015 310.698,189.015L310.698,159.428C305.136,159.428 300.609,154.919 300.609,149.357ZM186.761,111.136L186.761,154.787C186.761,157.265 184.705,159.274 182.168,159.274C179.631,159.274 177.575,157.265 177.575,154.787L177.575,111.136L147.831,111.136L147.831,162.474C147.831,171.709 150.963,183.389 165.216,187.192C179.484,190.999 187.761,183.118 187.761,183.118C187.007,188.31 182.117,192.113 174.24,192.928C168.28,193.544 160.658,191.57 156.856,189.94L156.856,217.139C166.544,219.996 176.791,220.919 186.819,218.973C205.018,215.442 216.504,200.231 216.504,179.994L216.504,111.136L186.761,111.136Z" style="fill:rgb(234,11,140);"/>
            </g>
        </g>
    </g>
</svg>
