<?xml version="1.0" encoding="UTF-8" standalone="no"?>
<!DOCTYPE svg PUBLIC "-//W3C//DTD SVG 1.1//EN" "http://www.w3.org/Graphics/SVG/1.1/DTD/svg11.dtd">
<svg width="100%" height="100%" viewBox="0 0 80 81" version="1.1" xmlns="http://www.w3.org/2000/svg" xmlns:xlink="http://www.w3.org/1999/xlink" xml:space="preserve" xmlns:serif="http://www.serif.com/" style="fill-rule:evenodd;clip-rule:evenodd;stroke-linejoin:round;stroke-miterlimit:2;">
    <g transform="matrix(0.732601,0,0,0.732601,-551.686,-236.549)">
        <g id="path1384" transform="matrix(4.92607,0,0,-4.92607,768.16,375.466)">
            <path d="M0,0C-0.36,-0.577 -0.512,-2.394 -0.387,-3.6C-0.343,-3.998 -0.271,-4.33 -0.166,-4.528C-0.022,-4.802 0.22,-4.965 0.496,-4.975C0.673,-4.984 0.783,-4.954 4.111,-3.884C4.111,-3.884 5.59,-3.412 5.596,-3.409C5.965,-3.315 6.213,-2.976 6.237,-2.543C6.261,-2.099 6.032,-1.707 5.654,-1.565C5.654,-1.565 4.611,-1.14 4.609,-1.14C1.033,0.335 0.872,0.393 0.692,0.395C0.416,0.406 0.171,0.267 0,0" style="fill:rgb(191,37,25);fill-rule:nonzero;"/>
        </g>
        <g id="g1386" transform="matrix(4.92607,0,0,-4.92607,807.568,429.604)">
            <path id="path1388" d="M0,0C0.058,0.168 0.065,0.283 0.075,3.779C0.075,3.779 0.083,5.324 0.084,5.339C0.108,5.718 -0.137,6.063 -0.538,6.217C-0.951,6.376 -1.396,6.278 -1.646,5.967C-1.646,5.967 -2.376,5.101 -2.378,5.101C-4.883,2.158 -4.988,2.022 -5.049,1.848C-5.086,1.746 -5.101,1.636 -5.089,1.527C-5.074,1.371 -5.003,1.217 -4.886,1.073C-4.305,0.383 -1.519,-0.642 -0.629,-0.49C-0.32,-0.434 -0.095,-0.26 0,0" style="fill:rgb(191,37,25);fill-rule:nonzero;"/>
        </g>
        <g id="g1390" transform="matrix(4.92607,0,0,-4.92607,835.41,423.609)">
            <path id="path1392" d="M0,0C0.84,0.335 2.672,2.666 2.801,3.563C2.846,3.875 2.748,4.144 2.533,4.316C2.392,4.422 2.285,4.463 -1.041,5.555C-1.041,5.555 -2.5,6.037 -2.519,6.046C-2.872,6.183 -3.275,6.056 -3.546,5.722C-3.828,5.379 -3.87,4.926 -3.645,4.584L-3.058,3.628C-1.084,0.422 -0.933,0.195 -0.791,0.084C-0.571,-0.089 -0.291,-0.117 0,0" style="fill:rgb(191,37,25);fill-rule:nonzero;"/>
        </g>
        <g id="g1394" transform="matrix(4.92607,0,0,-4.92607,826.942,382.949)">
            <path id="path1396" d="M0,0C3.78,0.916 3.926,0.964 4.075,1.062C4.304,1.216 4.419,1.474 4.399,1.788C4.399,1.798 4.401,1.809 4.399,1.82C4.302,2.748 2.676,5.162 1.875,5.554C1.591,5.69 1.307,5.681 1.071,5.523C0.925,5.428 0.818,5.284 -1.206,2.516C-1.206,2.516 -2.12,1.271 -2.131,1.259C-2.372,0.966 -2.376,0.546 -2.14,0.186C-1.896,-0.187 -1.484,-0.369 -1.106,-0.264C-1.106,-0.264 -1.121,-0.291 -1.125,-0.296C-0.939,-0.226 -0.606,-0.144 0,0" style="fill:rgb(191,37,25);fill-rule:nonzero;"/>
        </g>
        <g id="g1398" transform="matrix(4.92607,0,0,-4.92607,808.253,367.575)">
            <path id="path1400" d="M0,0C-0.065,1.498 -0.516,8.168 -0.569,8.477C-0.645,8.757 -0.864,8.957 -1.178,9.036C-2.143,9.275 -5.831,8.242 -6.514,7.537C-6.734,7.308 -6.815,7.026 -6.749,6.776C-6.641,6.555 -2.072,-0.634 -2.072,-0.634C-1.397,-1.729 -0.846,-1.559 -0.665,-1.502C-0.486,-1.447 0.062,-1.277 0,0" style="fill:rgb(191,37,25);fill-rule:nonzero;"/>
        </g>
    </g>
</svg>
